<?xml version="1.0" standalone="no"?>
<!DOCTYPE svg PUBLIC "-//W3C//DTD SVG 20010904//EN"
 "http://www.w3.org/TR/2001/REC-SVG-20010904/DTD/svg10.dtd">
<svg version="1.0" xmlns="http://www.w3.org/2000/svg"
 width="1563.000000pt" height="1563.000000pt" viewBox="0 0 1563.000000 1563.000000"
 preserveAspectRatio="xMidYMid meet">

<g transform="translate(0.000000,1563.000000) scale(0.100000,-0.100000)"
fill="#000000" stroke="none">
<path d="M12023 11039 c-183 -31 -289 -135 -340 -336 -16 -61 -18 -127 -18
-628 0 -516 1 -565 19 -628 67 -244 296 -359 591 -295 114 25 212 99 259 194
42 86 55 182 56 412 l0 202 -189 0 -190 0 -3 -209 c-3 -195 -5 -212 -24 -238
-25 -33 -74 -42 -109 -19 -42 28 -46 83 -43 634 3 501 3 511 24 539 22 29 58
39 101 28 43 -10 53 -56 53 -245 l0 -170 186 0 185 0 -3 228 c-3 212 -5 231
-27 287 -72 181 -294 283 -528 244z"/>
<path d="M13061 11040 c-151 -23 -251 -95 -312 -223 -47 -101 -50 -147 -47
-752 3 -547 4 -562 26 -626 59 -177 175 -274 355 -299 147 -21 298 17 387 97
147 132 165 245 157 978 -5 496 -7 518 -62 623 -67 128 -187 195 -367 206 -45
2 -107 1 -137 -4z m158 -359 c12 -12 22 -40 26 -73 3 -29 5 -281 3 -560 -3
-497 -3 -507 -24 -535 -17 -23 -29 -28 -64 -28 -35 0 -47 5 -64 28 -21 28 -21
37 -24 550 -2 287 0 537 3 556 13 71 98 108 144 62z"/>
<path d="M907 11006 c-32 -14 -76 -36 -97 -50 -50 -33 -116 -120 -141 -185
-18 -50 -19 -93 -19 -1481 l0 -1430 1585 0 1585 0 0 1585 0 1585 -1427 0
-1428 0 -58 -24z m1433 -1111 l0 -365 360 0 360 0 0 -150 0 -150 -360 0 -360
0 0 -365 0 -366 -152 3 -153 3 -3 363 -2 362 -360 0 -360 0 0 150 0 150 360 0
360 0 0 365 0 365 155 0 155 0 0 -365z"/>
<path d="M4120 9445 l0 -1585 1595 0 1595 0 -2 1423 c-3 1326 -4 1425 -21
1472 -27 77 -87 155 -155 202 -115 78 0 73 -1591 73 l-1421 0 0 -1585z m2518
-62 l-3 -148 -877 -3 -878 -2 0 150 0 150 880 0 881 0 -3 -147z"/>
<path d="M8010 10090 l0 -940 165 0 165 0 0 667 c0 366 3 664 6 661 3 -4 56
-303 117 -665 l112 -658 167 -3 166 -2 6 27 c3 16 51 312 106 658 56 347 102
635 105 640 2 6 4 -290 4 -657 l1 -668 170 0 170 0 0 940 0 940 -287 0 -288 0
-73 -543 c-66 -481 -89 -628 -91 -577 -1 9 -35 261 -76 560 -41 300 -75 548
-75 553 0 4 -128 7 -285 7 l-285 0 0 -940z"/>
<path d="M9766 10978 c-6 -51 -176 -1811 -176 -1822 0 -9 360 -7 361 2 0 4 6
72 12 152 l12 145 112 3 c130 3 118 15 128 -123 3 -44 8 -104 11 -132 l6 -53
174 0 c159 0 174 2 174 18 1 9 -39 432 -87 940 l-87 922 -317 0 -317 0 -6 -52z
m328 -300 c8 -48 76 -848 76 -891 l0 -37 -79 0 c-44 0 -82 3 -84 8 -2 4 11
205 29 447 18 242 33 455 33 473 1 17 5 32 11 32 5 0 11 -15 14 -32z"/>
<path d="M10635 10998 c4 -18 72 -305 151 -637 l144 -603 0 -304 0 -304 175 0
175 0 0 312 0 311 145 611 c80 336 148 619 151 629 5 16 -8 17 -179 17 -183 0
-185 0 -190 -22 -3 -13 -27 -153 -53 -312 -33 -200 -50 -282 -55 -265 -4 13
-29 153 -55 312 l-47 287 -184 0 -185 0 7 -32z"/>
<path d="M13780 10090 l0 -940 180 0 180 0 1 463 c0 275 4 452 9 437 5 -14 48
-222 96 -462 l87 -438 183 0 184 0 0 940 0 940 -180 0 -180 0 0 -442 c0 -243
-2 -439 -5 -436 -3 3 -41 193 -85 424 -45 230 -83 427 -86 437 -5 15 -23 17
-195 17 l-189 0 0 -940z"/>
<path d="M8362 8815 c-91 -20 -149 -51 -208 -110 -92 -92 -134 -217 -134 -405
0 -89 4 -117 28 -185 42 -119 96 -190 305 -400 215 -215 241 -254 256 -387 16
-144 -10 -208 -86 -208 -86 0 -97 26 -103 235 l-5 170 -197 3 -198 2 0 -170
c0 -194 15 -290 60 -386 68 -141 193 -213 403 -230 226 -18 392 64 467 229 80
178 91 467 25 643 -43 113 -89 172 -310 390 -230 226 -254 259 -255 347 0 38
5 53 25 72 30 31 92 34 126 6 22 -17 24 -29 27 -115 l4 -96 203 0 c130 0 206
4 210 10 12 20 -16 224 -41 298 -29 86 -44 112 -98 170 -74 79 -183 120 -341
127 -67 3 -121 0 -163 -10z"/>
<path d="M9620 7785 l0 -1025 195 0 195 0 0 1025 0 1025 -195 0 -195 0 0
-1025z"/>
<path d="M10650 7785 l0 -1025 420 0 420 0 -2 173 -3 172 -212 3 -213 2 0 850
0 850 -205 0 -205 0 0 -1025z"/>
<path d="M12014 8793 c2 -10 60 -471 128 -1026 l123 -1007 280 2 280 3 125
1020 126 1020 -189 3 c-105 1 -192 0 -195 -3 -4 -4 -129 -1257 -133 -1340 -3
-70 -22 74 -84 665 -36 338 -67 630 -70 648 l-6 32 -195 0 c-181 0 -195 -1
-190 -17z"/>
<path d="M13815 8778 c-3 -18 -45 -456 -95 -973 -49 -517 -93 -964 -96 -992
l-6 -53 199 0 200 0 7 118 c4 64 10 138 13 165 l6 47 122 0 123 0 6 -52 c3
-29 8 -84 11 -123 3 -38 8 -89 11 -112 l5 -43 192 0 193 0 -98 1013 c-53 556
-97 1018 -97 1025 -1 9 -77 12 -346 12 l-344 0 -6 -32z m355 -330 c0 -22 80
-932 86 -980 l6 -48 -97 0 -97 0 6 58 c3 31 20 251 36 487 33 465 36 495 50
495 6 0 10 -5 10 -12z"/>
<path d="M652 6103 l3 -1448 28 -56 c37 -77 113 -151 195 -191 l67 -33 1438
-3 1437 -2 0 1590 0 1590 -1585 0 -1585 0 2 -1447z m1788 182 c140 140 257
255 260 255 3 0 52 -50 109 -111 l104 -111 -254 -254 -254 -254 255 -255 255
-255 -107 -107 -106 -106 -258 252 -258 252 -253 -253 -253 -253 -110 110
-110 110 252 252 252 252 -171 178 c-95 98 -208 214 -252 258 l-81 80 107 107
108 108 255 -255 255 -255 255 255z"/>
<path d="M5050 6115 l0 -155 708 2 707 3 3 153 3 152 -711 0 -710 0 0 -155z"/>
<path d="M9130 6195 c-135 -44 -209 -208 -166 -374 34 -133 130 -209 267 -211
89 0 154 24 209 79 59 59 80 118 80 222 0 132 -50 224 -150 275 -47 24 -179
29 -240 9z m176 -84 c62 -28 87 -76 92 -176 5 -96 -7 -142 -50 -191 -82 -93
-235 -47 -267 80 -50 200 72 356 225 287z"/>
<path d="M10968 6200 c-78 -23 -136 -108 -123 -179 15 -80 54 -112 182 -151
91 -27 123 -51 123 -91 0 -45 -16 -67 -57 -78 -62 -17 -137 15 -149 65 -6 22
-11 24 -66 24 l-60 0 7 -27 c23 -97 108 -153 231 -153 127 0 214 70 214 170 0
89 -51 144 -165 175 -33 10 -74 24 -91 32 -61 28 -67 101 -12 129 55 29 124
-2 143 -63 6 -20 13 -23 61 -23 48 0 54 2 54 20 0 26 -32 90 -57 112 -47 43
-160 61 -235 38z"/>
<path d="M11535 6191 c-66 -30 -98 -72 -103 -134 -8 -98 31 -139 169 -183 85
-26 139 -65 139 -100 0 -53 -66 -91 -129 -74 -38 10 -73 40 -84 73 -5 14 -18
17 -66 17 l-60 0 9 -31 c17 -57 45 -93 95 -119 42 -21 63 -25 135 -25 72 0 92
4 130 25 62 34 95 100 85 167 -12 80 -75 128 -214 163 -108 28 -125 136 -24
156 43 9 89 -18 104 -61 13 -35 14 -35 71 -35 33 0 58 4 58 10 0 25 -33 88
-63 118 -17 18 -47 37 -67 42 -56 16 -141 12 -185 -9z"/>
<path d="M12190 6201 c-108 -35 -172 -113 -191 -233 -11 -66 2 -161 28 -213
44 -88 144 -145 253 -145 119 0 214 60 261 165 34 74 32 200 -2 275 -50 107
-120 152 -244 156 -44 2 -91 0 -105 -5z m182 -103 c47 -33 72 -99 72 -190 -1
-134 -61 -212 -164 -212 -103 0 -165 80 -164 213 0 115 44 194 119 214 36 10
106 -2 137 -25z"/>
<path d="M7770 5910 l0 -290 55 0 55 0 0 109 0 109 98 4 c111 4 163 24 198 76
66 97 17 241 -91 271 -22 6 -102 11 -177 11 l-138 0 0 -290z m287 176 c22 -19
28 -32 28 -66 0 -34 -6 -47 -28 -66 -24 -21 -38 -24 -103 -24 l-74 0 0 90 0
90 74 0 c65 0 79 -3 103 -24z"/>
<path d="M8360 5911 l0 -291 60 0 60 0 0 121 0 122 67 -6 c56 -4 71 -9 90 -31
12 -14 25 -43 28 -64 4 -20 12 -59 18 -87 l12 -50 63 -3 c62 -3 63 -3 52 19
-7 12 -18 58 -26 102 -14 82 -32 121 -66 145 -18 13 -17 15 13 30 52 27 74 65
74 127 0 61 -21 98 -76 130 -30 17 -56 20 -201 24 l-168 3 0 -291z m290 184
c52 -27 49 -119 -6 -144 -14 -6 -56 -11 -94 -11 l-70 0 0 85 0 85 70 0 c43 0
82 -6 100 -15z"/>
<path d="M9700 5910 l0 -290 55 0 54 0 3 123 3 122 133 3 132 3 0 44 0 45
-135 0 -135 0 0 75 0 75 150 0 150 0 0 45 0 45 -205 0 -205 0 0 -290z"/>
<path d="M10270 5910 l0 -290 210 0 210 0 0 45 0 45 -155 0 -156 0 3 78 3 77
138 3 138 3 -3 42 -3 42 -137 3 -138 3 0 74 0 75 150 0 150 0 0 45 0 45 -205
0 -205 0 0 -290z"/>
<path d="M12740 5911 l0 -291 60 0 60 0 0 121 0 122 67 -6 c56 -4 71 -9 90
-31 12 -14 25 -43 28 -64 4 -20 12 -59 18 -87 l12 -50 63 -3 c62 -3 63 -3 52
19 -7 12 -18 58 -26 102 -14 82 -32 121 -66 145 -18 13 -17 15 13 30 52 27 74
65 74 127 0 61 -21 98 -76 130 -30 17 -56 20 -201 24 l-168 3 0 -291z m290
184 c52 -27 49 -119 -6 -144 -14 -6 -56 -11 -94 -11 l-70 0 0 85 0 85 70 0
c43 0 82 -6 100 -15z"/>
<path d="M13600 5909 l0 -291 153 4 c171 4 214 17 276 79 58 57 76 110 76 219
0 110 -17 152 -84 213 -58 53 -118 67 -283 67 l-138 0 0 -291z m296 182 c53
-24 84 -75 91 -149 7 -73 -10 -133 -48 -177 -36 -40 -80 -55 -166 -55 l-63 0
0 200 0 200 73 0 c48 0 85 -6 113 -19z"/>
<path d="M14280 5910 l0 -290 210 0 210 0 0 45 0 45 -150 0 -150 0 0 80 0 80
135 0 135 0 0 45 0 45 -135 0 -135 0 0 75 0 75 145 0 145 0 0 45 0 45 -205 0
-205 0 0 -290z"/>
<path d="M5050 5505 l0 -145 710 0 710 0 0 145 0 145 -710 0 -710 0 0 -145z"/>
<path d="M11891 5318 c-8 -13 -21 -33 -29 -45 -14 -22 -13 -23 17 -23 24 0 44
11 79 45 l47 45 -50 0 c-41 0 -53 -4 -64 -22z"/>
<path d="M13595 5207 c-132 -53 -194 -164 -182 -321 9 -115 55 -193 141 -239
59 -32 203 -32 262 0 63 34 100 82 118 156 l6 27 -59 0 c-57 0 -60 -1 -66 -28
-21 -96 -151 -128 -227 -55 -50 48 -73 175 -47 266 24 87 110 142 188 118 43
-12 91 -61 91 -92 0 -17 7 -19 60 -19 33 0 60 4 60 9 0 21 -25 79 -47 109 -38
51 -95 75 -188 79 -48 1 -92 -2 -110 -10z"/>
<path d="M7810 4920 l0 -290 55 0 55 0 1 228 c1 216 2 225 16 177 8 -27 38
-129 67 -225 l53 -175 64 0 63 0 23 75 c13 41 44 143 68 225 l44 150 1 -227 0
-228 55 0 55 0 0 290 0 290 -88 0 -87 0 -65 -234 c-36 -129 -66 -233 -68 -231
-2 1 -25 83 -53 181 -27 99 -56 203 -64 232 l-16 52 -89 0 -90 0 0 -290z"/>
<path d="M8756 4933 c-55 -153 -102 -284 -104 -290 -3 -10 12 -13 56 -13 l60
0 30 88 29 87 98 0 98 0 30 -87 29 -88 59 0 c32 0 59 4 59 8 0 4 -44 134 -99
287 l-99 280 -73 3 -74 3 -99 -278z m203 76 c17 -53 31 -99 31 -103 0 -3 -29
-6 -65 -6 -36 0 -65 3 -65 7 0 10 64 203 66 200 2 -1 16 -45 33 -98z"/>
<path d="M9370 5165 l0 -45 100 0 100 0 0 -245 0 -245 55 0 55 0 0 245 0 245
100 0 100 0 0 45 0 45 -255 0 -255 0 0 -45z"/>
<path d="M10100 4920 l0 -290 205 0 205 0 0 45 0 45 -150 0 -150 0 0 80 0 80
135 0 135 0 0 45 0 45 -135 0 -135 0 0 75 0 74 148 3 147 3 3 43 3 42 -205 0
-206 0 0 -290z"/>
<path d="M10760 4920 l0 -290 62 0 61 0 -5 225 c-4 124 -4 225 -2 225 2 0 8
-19 14 -42 12 -47 41 -145 90 -305 l32 -103 62 0 63 0 33 113 c18 61 48 162
66 222 l33 110 1 -222 0 -223 60 0 60 0 0 290 0 291 -92 -3 -92 -3 -61 -220
c-34 -121 -63 -226 -66 -234 -3 -8 -34 91 -70 220 l-65 234 -92 3 -92 3 0
-291z"/>
<path d="M11805 5193 c-5 -14 -113 -309 -191 -526 l-13 -38 61 3 61 3 30 88
29 87 98 0 99 0 27 -90 27 -90 63 0 63 0 -60 173 c-34 94 -79 225 -102 290
l-41 117 -72 0 c-59 0 -73 -3 -79 -17z m112 -193 l31 -100 -68 0 -67 0 30 100
c17 55 34 100 37 100 4 0 20 -45 37 -100z"/>
<path d="M12320 5165 l0 -45 100 0 100 0 0 -245 0 -245 55 0 55 0 0 245 0 245
100 0 100 0 0 45 0 45 -255 0 -255 0 0 -45z"/>
<path d="M13050 4920 l0 -290 55 0 55 0 0 290 0 290 -55 0 -55 0 0 -290z"/>
<path d="M14329 5183 c-6 -15 -51 -139 -100 -275 -49 -135 -92 -254 -95 -263
-6 -14 2 -16 56 -13 l63 3 30 88 29 88 96 -3 97 -3 30 -87 30 -88 61 0 62 0
-40 113 c-22 61 -68 191 -101 287 l-62 175 -73 3 c-71 3 -72 2 -83 -25z m115
-181 c14 -46 26 -87 26 -93 0 -5 -30 -9 -66 -9 -49 0 -65 3 -61 13 2 6 17 51
33 99 15 49 31 85 35 80 4 -4 19 -44 33 -90z"/>
</g>
</svg>
